<?xml version="1.0" encoding="UTF-8"?>
<svg id="Layer_2" xmlns="http://www.w3.org/2000/svg" version="1.1" viewBox="0 0 201.7 201.7">
  <!-- Generator: Adobe Illustrator 29.5.0, SVG Export Plug-In . SVG Version: 2.1.0 Build 137)  -->
  <defs>
    <style>
      .st0 {
        fill: #fff;
      }
    </style>
  </defs>
  <g id="Layer_1-2">
    <path class="st0" d="M24.5,90.7l64.6-37.3c7.9-4.5,17.7,1.1,17.7,10.2v74.6c0,9.1-9.8,14.7-17.7,10.2L24.5,111.1c-7.9-4.5-7.9-15.9,0-20.4Z"/>
    <g id="circle">
      <path class="st0" d="M100.9,191.7c-50.1,0-90.9-40.8-90.9-90.9S50.8,10,100.9,10s90.9,40.8,90.9,90.9-40.8,90.9-90.9,90.9M100.9,201.7c55.7,0,100.9-45.2,100.9-100.9S156.6,0,100.9,0,0,45.2,0,100.9s45.1,100.9,100.9,100.9h0Z"/>
    </g>
  </g>
  <g id="play">
    <path class="st0" d="M83.2,90.7l64.6-37.3c7.9-4.5,17.7,1.1,17.7,10.2v74.6c0,9.1-9.8,14.7-17.7,10.2l-64.6-37.3c-7.9-4.5-7.9-15.9,0-20.4Z"/>
  </g>
</svg>