<?xml version="1.0" encoding="UTF-8"?>
<svg xmlns="http://www.w3.org/2000/svg" version="1.1" viewBox="0 0 473.3 200">
  <!-- Generator: Adobe Illustrator 29.5.0, SVG Export Plug-In . SVG Version: 2.1.0 Build 137)  -->
  <defs>
    <style>
      .st0, .st1, .st2, .st3, .st4 {
        fill: #fff;
      }

      .st0, .st5 {
        opacity: .7;
      }

      .st6, .st2, .st7, .st3, .st4 {
        isolation: isolate;
      }

      .st2 {
        font-family: AnaphoraStencil-Extrabold, 'Anaphora Stencil';
        font-size: 14px;
        font-weight: 700;
      }

      .st7 {
        fill: none;
        opacity: .7;
        stroke: #fff;
        stroke-linecap: round;
        stroke-miterlimit: 10;
        stroke-width: 5px;
      }

      .st3 {
        opacity: .8;
      }

      .st4 {
        opacity: .4;
      }
    </style>
  </defs>
  <g id="Layer_2">
    <rect width="473.3" height="200"/>
  </g>
  <g id="playHeadContainer">
    <rect id="playHeadContainerBackground" class="st4" y="75.3" width="473.3" height="87.8" rx="14.3" ry="14.3"/>
    <line id="line" class="st7" x1="22" y1="140.3" x2="412.1" y2="140.3"/>
    <g id="playTime" class="st6">
      <text class="st2" transform="translate(424.5 146.2)"><tspan x="0" y="0">00:00</tspan></text>
    </g>
    <circle id="playHead" class="st3" cx="22" cy="140.3" r="8.9"/>
    <path id="next" class="st0" d="M285.3,106.4l-19.4,11.2c-2.4,1.4-5.3-.3-5.3-3.1v-4l-12.3,7.1c-2.4,1.4-5.3-.3-5.3-3.1v-22.3c0-2.7,2.9-4.4,5.3-3l12.3,7.1v-4c0-2.7,2.9-4.4,5.3-3l19.4,11.2c2.4,1.3,2.4,4.8,0,6.1Z"/>
    <path id="prev" class="st0" d="M42.2,100.3l19.4-11.2c2.4-1.4,5.3.3,5.3,3.1v4l12.3-7.1c2.4-1.4,5.3.3,5.3,3.1v22.3c0,2.7-2.9,4.4-5.3,3l-12.3-7.1v4c0,2.7-2.9,4.4-5.3,3l-19.4-11.2c-2.4-1.3-2.4-4.8,0-6.1Z"/>
    <path id="play" class="st0" d="M180,107.2l-24.7,14.2c-3,1.7-6.7-.4-6.7-3.9v-28.5c0-3.5,3.7-5.6,6.7-3.9l24.7,14.2c3,1.7,3,6.1,0,7.8Z"/>
    <rect id="pause" class="st0" x="144.4" y="84" width="38.7" height="38.7" rx="9.1" ry="9.1"/>
    <g id="playRandom" class="st5">
      <path class="st1" d="M343.6,112.5c8.4-1.1,12.9-11.2,18.2-16.9,5.1-5.5,10.9-8,18.4-8.4l.3-3.2,13.2,6.9-12.8,6.9c-.8.3-.3-1.9-.5-2.5-.3-1.1-2.5-.6-3.4-.5-7.9,1.6-13.6,15.2-20.3,20-3,2.2-8.7,4.8-12.4,4.8h-7.5v-7.1c2.2-.2,4.8.3,6.9,0Z"/>
      <path class="st1" d="M380,112.5l.5-3.3,13.1,6.6c0,.5-.4.6-.7.8-2.4,1.6-8.9,4.8-11.7,5.8s-.6.3-1,.2v-2.9c-6.6-.4-13.4-2.5-17.4-7.7l5.1-6.6c3,3.8,6.9,7.3,12.1,7Z"/>
      <path class="st1" d="M336.6,87.3c8.4-.4,16.5,1,22.7,7.1.3.2,0,.4,0,.6-.9,1.9-3.9,4.4-4.9,6.5-1.8-1.5-3.2-3.6-5.3-4.9s-4.8-2.2-6.7-2.2h-5.7v-7.1Z"/>
    </g>
  </g>
</svg>