<?xml version="1.0" encoding="UTF-8"?>
<svg id="Layer_2" data-name="Layer 2" xmlns="http://www.w3.org/2000/svg" viewBox="0 0 102.062 101.921">
  <defs>
    <style>
      .cls-1 {
        fill: #e4cec1;
      }
    </style>
  </defs>
  <g id="Layer_1-2" data-name="Layer 1">
    <path class="cls-1" d="M58.971,101.921v-35.875h11.958l2.308-14.895h-14.266v-10.595c0-4.089,4.028-7.028,7.867-7.028h7.028v-12.588c-1.989-.208-3.988-.669-5.981-.837-7.37-.622-16.462.286-21.169,6.729-5.123,7.013-3.383,16.172-3.69,24.318h-13.007v14.895h13.007v35.875c-3.461-.564-6.895-1.518-10.179-2.724C-14.185,81.938-9.591,12.134,39.458,1.322c36.138-7.966,67.068,21.183,62.072,57.666-3.087,22.542-20.266,39.346-42.559,42.933Z"/>
  </g>
</svg>