<?xml version="1.0" encoding="UTF-8"?>
<svg id="Layer_2" data-name="Layer 2" xmlns="http://www.w3.org/2000/svg" viewBox="0 0 102.013 101.921">
  <defs>
    <style>
      .cls-1 {
        fill: #e2cec0;
      }
    </style>
  </defs>
  <g id="Layer_1-2" data-name="Layer 1">
    <path class="cls-1" d="M47.443.134C9.023,2.844-12.827,46.124,8.133,78.634c20.84,32.33,69.42,30.73,87.67-3.14C114.883,40.084,87.523-2.706,47.443.134ZM83.063,66.754c-.76,10.92-6.73,17.04-17.74,17.75-7.09.46-27.25.91-33.39-.66-11.33-2.89-12.48-12.61-12.91-22.59-.32-7.45-.74-25.98,2.44-32.11,5.51-10.65,16.79-7.44,26.5-8.54l3.81.4c10.79.4,24.48-3.05,29.66,9.34,2.47,5.91,2.14,29.1,1.63,36.41Z"/>
    <path class="cls-1" d="M56.563,43.754c-9.95-6.14-20.87,6.04-13.57,15.58,3.38,4.4,10.57,5.11,14.83,1.58,5.46-4.53,4.83-13.4-1.26-17.16ZM56.563,43.754c-9.95-6.14-20.87,6.04-13.57,15.58,3.38,4.4,10.57,5.11,14.83,1.58,5.46-4.53,4.83-13.4-1.26-17.16ZM77.023,49.254c-.12-10.18,2.26-21.14-11.28-22.72-6.44-.75-22.91-.73-29.32.08-5.69.71-10.39,4.33-11.25,10.25-.92,6.36-.78,23.76-.12,30.36.94,9.58,7.39,11.32,15.72,11.78,7.76.42,18.87.41,26.52-.52,5.19-.63,9.11-4.67,9.7-9.81.66-5.76.1-13.59.03-19.42ZM55.023,68.864c-22.27,5.53-28.92-29.95-6.14-32.64,21.16-2.5,25.74,27.77,6.14,32.64ZM67.303,37.514c-4.47-.17-4.91-6.53-.9-7.44,6.15-1.38,6.83,7.67.9,7.44ZM56.563,43.754c-9.95-6.14-20.87,6.04-13.57,15.58,3.38,4.4,10.57,5.11,14.83,1.58,5.46-4.53,4.83-13.4-1.26-17.16Z"/>
  </g>
</svg>