<?xml version="1.0" encoding="UTF-8"?>
<svg id="Layer_2" data-name="Layer 2" xmlns="http://www.w3.org/2000/svg" viewBox="0 0 88.054 88.054">
  <defs>
    <style>
      .cls-1 {
        fill: #cecece;
        opacity: .7;
      }

      .cls-1, .cls-2 {
        isolation: isolate;
      }

      .cls-2 {
        fill: #fff;
      }
    </style>
  </defs>
  <g id="Layer_1-2" data-name="Layer 1">
    <path class="cls-1" d="M18.345,0h51.365c10.135,0,18.345,8.209,18.345,18.345v51.365c0,10.135-8.209,18.345-18.345,18.345H18.345c-10.135,0-18.345-8.209-18.345-18.345V18.345C0,8.209,8.209,0,18.345,0h0Z"/>
    <g>
      <path class="cls-2" d="M33.974,43.303L12.089,21.417c1.014-.486,2.146-.757,3.343-.757h57.167c1.445,0,2.798.394,3.958,1.082l-21.56,21.56c-2.807,2.807-6.54,4.355-10.511,4.355s-7.705-1.548-10.511-4.355Z"/>
      <path class="cls-2" d="M33.488,43.789c.282.282.573.55.871.809l-24.059,20.817.284.328c-1.784-1.424-2.926-3.618-2.926-6.077v-31.232c0-3.075,1.789-5.735,4.38-6.994l-.584.315,22.033,22.033Z"/>
      <path class="cls-2" d="M44.486,48.345c3.508,0,6.838-1.153,9.558-3.279l23.91,20.234c-1.394,1.325-3.279,2.139-5.354,2.139H15.432c-1.74,0-3.348-.573-4.643-1.541l24.109-20.858c2.726,2.142,6.067,3.304,9.587,3.304Z"/>
      <path class="cls-2" d="M80.373,28.434v31.232c0,2.119-.851,4.043-2.227,5.444l.271-.316-23.834-20.17c.31-.266.61-.543.901-.835l21.647-21.647-.083-.083c2.009,1.403,3.325,3.735,3.325,6.375Z"/>
    </g>
  </g>
</svg>