<?xml version="1.0" encoding="UTF-8"?>
<svg id="playPause" xmlns="http://www.w3.org/2000/svg" version="1.1" viewBox="0 0 201.7 201.7">
  <!-- Generator: Adobe Illustrator 29.5.0, SVG Export Plug-In . SVG Version: 2.1.0 Build 137)  -->
  <defs>
    <style>
      .st0 {
        fill: #fff;
      }
    </style>
  </defs>
  <path id="circle" class="st0" d="M100.9,10c50.1,0,90.9,40.8,90.9,90.9s-40.8,90.9-90.9,90.9S10,151,10,100.9,50.8,10,100.9,10M100.9,0C45.2,0,0,45.2,0,100.9s45.2,100.9,100.9,100.9,100.9-45.2,100.9-100.9S156.6,0,100.9,0h0Z"/>
  <path id="play" class="st0" d="M167.5,115.6l-92.3,53.3c-11.2,6.5-25.2-1.6-25.2-14.6V47.7c0-13,14-21.1,25.2-14.6l92.3,53.3c11.2,6.5,11.2,22.7,0,29.2Z"/>
  <rect id="pause" class="st0" x="38.5" y="38.5" width="124.8" height="124.7" rx="21.6" ry="21.6"/>
</svg>