<?xml version="1.0" encoding="UTF-8"?>
<svg id="Layer_2" data-name="Layer 2" xmlns="http://www.w3.org/2000/svg" viewBox="0 0 201.72 201.72">
  <defs>
    <style>
      .cls-1 {
        fill: #fff;
      }
    </style>
  </defs>
  <g id="Layer_1-2" data-name="Layer 1">
    <g id="circle">
      <path class="cls-1" d="M100.86,10c50.1,0,90.86,40.76,90.86,90.86s-40.76,90.86-90.86,90.86S10,150.96,10,100.86,50.76,10,100.86,10M100.86,0C45.16,0,0,45.16,0,100.86s45.16,100.86,100.86,100.86,100.86-45.16,100.86-100.86S156.57,0,100.86,0h0Z"/>
    </g>
    <g id="play">
      <path class="cls-1" d="M168.41,115.44l-92.33,53.31c-11.22,6.48-25.25-1.62-25.25-14.58V47.55c0-12.96,14.03-21.06,25.25-14.58l92.33,53.31c11.22,6.48,11.22,22.68,0,29.16Z"/>
    </g>
    
  </g>
</svg>