<?xml version="1.0" encoding="UTF-8"?>
<svg id="Layer_2" data-name="Layer 2" xmlns="http://www.w3.org/2000/svg" viewBox="0 0 102.06 101.921">
  <defs>
    <style>
      .cls-1 {
        fill: #e3cec0;
      }

      .cls-2 {
        fill: #e4cec0;
      }
    </style>
  </defs>
  <g id="Layer_1-2" data-name="Layer 1">
    <path class="cls-1" d="M47.914.094C10.285,2.316-12.148,43.849,6.945,76.62c19.306,33.138,67.138,33.892,87.373,1.274C116.14,42.713,89.033-2.332,47.914.094ZM86.474,68.418c-2.416,8.157-11.769,7.182-18.639,7.455-11.306.448-22.527.459-33.835-.01-7.251-.3-16.264.732-18.564-7.938-1.975-7.451-1.774-22.541-.681-30.249,1.547-10.907,6.668-10.972,16.384-11.545,4.271-.253,8.621-.277,12.9-.351,10.617-.177,23.552-.461,33.984.962,7.286.995,8.782,6.059,9.457,12.56.779,7.5,1.095,22.029-1.007,29.116Z"/>
    <path class="cls-2" d="M67.528,44.757l-22.943-13.246c-4.665-2.693-10.496.673-10.496,6.06v26.492c0,5.387,5.831,8.754,10.496,6.06l22.943-13.246c4.665-2.693,4.665-9.427,0-12.12Z"/>
  </g>
</svg>